<?xml version="1.0" encoding="UTF-8" standalone="no"?>
<!-- Created with Inkscape (http://www.inkscape.org/) -->

<svg
   version="1.1"
   id="svg2547"
   xml:space="preserve"
   width="682.66669"
   height="682.66669"
   viewBox="0 0 682.66669 682.66669"
   xmlns="http://www.w3.org/2000/svg"
   xmlns:svg="http://www.w3.org/2000/svg"><defs
     id="defs2551"><clipPath
       clipPathUnits="userSpaceOnUse"
       id="clipPath2561"><path
         d="M 0,512 H 512 V 0 H 0 Z"
         id="path2559" /></clipPath></defs><g
     id="g2553"
     transform="matrix(1.3333333,0,0,-1.3333333,0,682.66667)"><g
       id="g2555"><g
         id="g2557"
         clip-path="url(#clipPath2561)"><g
           id="g2563"
           transform="translate(112.0698,389.9805)"><path
             d="M 0,0 C 11.493,12.009 24.005,24.931 37.739,34.249"
             style="fill:none;stroke:#000000;stroke-width:20;stroke-linecap:round;stroke-linejoin:round;stroke-miterlimit:10;stroke-dasharray:none;stroke-opacity:1"
             id="path2565" /></g><g
           id="g2567"
           transform="translate(399.9302,122.0195)"><path
             d="M 0,0 C -6.5,-6.792 -13.648,-14.207 -20.63,-20.539"
             style="fill:none;stroke:#000000;stroke-width:20;stroke-linecap:round;stroke-linejoin:round;stroke-miterlimit:10;stroke-dasharray:none;stroke-opacity:1"
             id="path2569" /></g><g
           id="g2571"
           transform="translate(157.9399,428.8496)"><path
             d="m 0,0 c 10.05,5.37 21.58,9.301 35.87,11.4 20.8,3.05 40.46,5.93 52.17,9.21 23.63,6.62 40.02,28 40.02,52.54 h -60 c -83.8,0 -125.63,-37.46 -157.25,-70.49 -17.93,-18.74 -35.03,-36.38 -58.75,-44.58 v -100.93 h 13 c 49.97,0 97.9,26.411 132.44,62.52 12.64,13.23 21.5,22.431 30.43,27.24 14.59,7.84 20.07,26.04 12.19,40.63 C 32.36,1.96 14.5,7.45 0,0 -5.706,-3.021 -10.91,-6.501 -15.97,-10.47"
             style="fill:none;stroke:#000000;stroke-width:20;stroke-linecap:round;stroke-linejoin:round;stroke-miterlimit:10;stroke-dasharray:none;stroke-opacity:1"
             id="path2573" /></g><g
           id="g2575"
           transform="translate(84.8701,154.8398)"><path
             d="m 0,0 c -7.083,12.233 -11.066,24.993 -13.12,38.97 -3.05,20.801 -5.93,40.46 -9.21,52.171 -6.62,23.63 -28,40.019 -52.54,40.019 v -60 c 0,-83.8 37.46,-125.63 70.49,-157.25 18.74,-17.93 36.38,-35.03 44.58,-58.75 h 100.93 v 13 c 0,49.97 -26.41,97.901 -62.52,132.441 C 65.38,13.24 56.18,22.101 51.37,31.03 43.53,45.62 25.33,51.101 10.74,43.22 -3.242,35.696 -10.474,17.559 0,0 3.317,-5.779 8.08,-12.568 15.03,-20.38"
             style="fill:none;stroke:#000000;stroke-width:20;stroke-linecap:round;stroke-linejoin:round;stroke-miterlimit:10;stroke-dasharray:none;stroke-opacity:1"
             id="path2577" /></g><g
           id="g2579"
           transform="translate(122.02,112.0703)"><path
             d="M 0,0 C -6.666,6.379 -14.17,13.606 -20.54,20.63"
             style="fill:none;stroke:#000000;stroke-width:20;stroke-linecap:round;stroke-linejoin:round;stroke-miterlimit:10;stroke-dasharray:none;stroke-opacity:1"
             id="path2581" /></g><g
           id="g2583"
           transform="translate(412.1001,377.54)"><path
             d="m 0,0 c 6.812,-7.736 11.447,-13.723 16.75,-23.48 5.37,-10.05 9.3,-21.58 11.4,-35.87 3.05,-20.8 5.93,-40.46 9.21,-52.171 6.62,-23.629 28,-40.019 52.54,-40.019 v 60 C 89.9,-7.74 52.44,34.09 19.41,65.71 0.67,83.64 -16.97,100.74 -25.17,124.46 H -126.1 v -13 c 0,-49.97 26.41,-97.9 62.52,-132.44 13.23,-12.64 22.43,-21.5 27.24,-30.43 7.84,-14.59 26.04,-20.07 40.63,-12.19 14.42,7.76 19.91,25.62 12.46,40.12"
             style="fill:none;stroke:#000000;stroke-width:20;stroke-linecap:round;stroke-linejoin:round;stroke-miterlimit:10;stroke-dasharray:none;stroke-opacity:1"
             id="path2585" /></g><g
           id="g2587"
           transform="translate(389.98,399.9297)"><path
             d="M 0,0 C 8.485,-8.119 19.115,-18.363 26.808,-27.879"
             style="fill:none;stroke:#000000;stroke-width:20;stroke-linecap:round;stroke-linejoin:round;stroke-miterlimit:10;stroke-dasharray:none;stroke-opacity:1"
             id="path2589" /></g><g
           id="g2591"
           transform="translate(226,301)"><path
             d="M 0,0 C 22.8,0 30,-26 30,-26 30,-26 37.2,0 60,0 77.76,0 90,-14.91 90,-32.57 90,-46.78 81.73,-58.2 67.8,-71.35 57.79,-80.78 44.87,-91.11 30,-104 -5.58,-73.16 -30,-56.99 -30,-32.57 -30,-14.91 -17.76,0 0,0 Z"
             style="fill:none;stroke:#000000;stroke-width:20;stroke-linecap:round;stroke-linejoin:round;stroke-miterlimit:10;stroke-dasharray:none;stroke-opacity:1"
             id="path2593" /></g><g
           id="g2595"
           transform="translate(432,60)"><path
             d="m 0,0 c 0,-5.522 -4.477,-10 -10,-10 -5.523,0 -10,4.478 -10,10 0,5.522 4.477,10 10,10 C -4.477,10 0,5.522 0,0"
             style="fill:#000000;fill-opacity:1;fill-rule:nonzero;stroke:none"
             id="path2597" /></g><g
           id="g2599"
           transform="translate(377.54,99.9004)"><path
             d="m 0,0 c -18.833,-16.617 -36.074,-24.729 -59.35,-28.15 -20.8,-3.05 -40.46,-5.93 -52.17,-9.21 -23.63,-6.62 -40.02,-28 -40.02,-52.54 h 60 c 42.676,0 74.467,9.714 99.568,23.612"
             style="fill:none;stroke:#000000;stroke-width:20;stroke-linecap:round;stroke-linejoin:round;stroke-miterlimit:10;stroke-dasharray:none;stroke-opacity:1"
             id="path2601" /></g><g
           id="g2603"
           transform="translate(454.0205,91.5879)"><path
             d="m 0,0 c 14.3,14.352 29.027,26.93 47.979,33.482 v 100.93 h -13 c -49.97,0 -97.899,-26.41 -132.439,-62.519 -12.641,-13.231 -21.5,-22.431 -30.431,-27.241 -14.589,-7.839 -20.069,-26.04 -12.19,-40.63 7.648,-14.211 25.852,-21.1 43.221,-10.74"
             style="fill:none;stroke:#000000;stroke-width:20;stroke-linecap:round;stroke-linejoin:round;stroke-miterlimit:10;stroke-dasharray:none;stroke-opacity:1"
             id="path2605" /></g></g></g></g></svg>
